<?xml version="1.0" encoding="UTF-8"?><svg id="Layer_1" xmlns="http://www.w3.org/2000/svg" viewBox="0 0 187.1 59.05"><defs><style>.cls-1{fill:#E4DCCF;}</style></defs><g><path class="cls-1" d="M55.11,27.43v1.13c-.04,.05-.08,.1-.1,.16-.45,1.27-1.36,1.94-2.71,1.97-.58,.01-1.17,0-1.75,0-.63,0-1.26,0-1.93,0,0,.27,0,.47,0,.68,0,6.88,0,13.77,0,20.65,0,1.22-.57,1.8-1.79,1.8-4.15,0-8.31,0-12.46,0-1.25,0-1.81-.58-1.81-1.83,0-4.07,0-8.14,0-12.2,0-.2,0-.4,0-.59h-7.62v.6c0,4.03-.03,8.07,.02,12.1,.01,1.14-.58,1.95-1.95,1.94-4.07-.04-8.14-.04-12.2,0-1.32,.01-1.95-.75-1.95-1.94,.03-6.85,.02-13.7,.02-20.54,0-.2,0-.4,0-.63-.17-.01-.28-.03-.4-.03-1.1,0-2.2,.02-3.3,0-1.22-.03-2.14-.58-2.61-1.75-.43-1.08-.16-2.16,.76-3.04,.16-.15,.33-.3,.49-.45,7.64-6.96,15.27-13.92,22.91-20.87,1.3-1.18,2.74-1.18,4.04,.01,7.62,6.95,15.25,13.9,22.88,20.84,.63,.57,1.2,1.17,1.46,2Z"/><path class="cls-1" d="M49.77,17.69c-4.02-3.65-7.93-7.21-11.91-10.83,.21-.03,.33-.06,.45-.06,3.22,0,6.45,0,9.67,0,1.22,0,1.79,.58,1.79,1.8,0,2.98,0,5.96,0,9.09Z"/></g><g><path class="cls-1" d="M63.96,25.96v6.04h-3.53V14.86h6.68c1.29,0,2.42,.24,3.39,.71s1.73,1.14,2.25,2.01c.53,.87,.79,1.85,.79,2.96,0,1.68-.57,3-1.72,3.97-1.15,.97-2.74,1.45-4.77,1.45h-3.09Zm0-2.86h3.15c.93,0,1.65-.22,2.14-.66,.49-.44,.74-1.07,.74-1.88s-.25-1.52-.74-2.04-1.18-.78-2.05-.8h-3.24v5.38Z"/><path class="cls-1" d="M90.05,23.82c0,1.69-.3,3.17-.89,4.44-.6,1.27-1.45,2.25-2.56,2.94-1.11,.69-2.38,1.04-3.82,1.04s-2.69-.34-3.8-1.02c-1.11-.68-1.98-1.66-2.59-2.92-.61-1.27-.92-2.72-.93-4.37v-.85c0-1.69,.3-3.17,.91-4.45,.61-1.28,1.47-2.27,2.58-2.95,1.11-.69,2.38-1.03,3.81-1.03s2.7,.34,3.81,1.03c1.11,.69,1.97,1.67,2.58,2.95,.61,1.28,.91,2.76,.91,4.44v.76Zm-3.58-.78c0-1.8-.32-3.16-.96-4.1-.64-.93-1.56-1.4-2.75-1.4s-2.1,.46-2.74,1.38c-.64,.92-.97,2.27-.98,4.05v.84c0,1.75,.32,3.11,.96,4.07,.64,.96,1.57,1.45,2.78,1.45s2.09-.46,2.73-1.39,.96-2.28,.96-4.07v-.84Z"/><path class="cls-1" d="M98.96,25.72h-2.81v6.27h-3.53V14.86h6.37c2.02,0,3.59,.45,4.68,1.35,1.1,.9,1.65,2.18,1.65,3.82,0,1.17-.25,2.14-.76,2.92-.51,.78-1.27,1.4-2.3,1.87l3.71,7v.16h-3.79l-3.21-6.27Zm-2.81-2.86h2.85c.89,0,1.57-.23,2.06-.68,.49-.45,.73-1.07,.73-1.87s-.23-1.44-.69-1.91c-.46-.46-1.16-.69-2.11-.69h-2.84v5.14Z"/><path class="cls-1" d="M120.3,17.72h-5.25v14.27h-3.53v-14.27h-5.18v-2.86h13.96v2.86Z"/><path class="cls-1" d="M125.85,29.16h7.5v2.84h-11.03V14.86h3.53v14.3Z"/><path class="cls-1" d="M145.26,28.46h-6.19l-1.18,3.53h-3.75l6.38-17.13h3.27l6.41,17.13h-3.75l-1.19-3.53Zm-5.24-2.86h4.28l-2.15-6.41-2.13,6.41Z"/><path class="cls-1" d="M165.74,31.99h-3.53l-6.87-11.27v11.27h-3.53V14.86h3.53l6.88,11.3V14.86h3.52V31.99Z"/><path class="cls-1" d="M168.82,31.99V14.86h5.27c1.51,0,2.85,.34,4.04,1.02,1.19,.68,2.12,1.64,2.78,2.89,.67,1.25,1,2.67,1,4.27v.79c0,1.59-.33,3.01-.98,4.25-.66,1.24-1.58,2.2-2.77,2.88-1.19,.68-2.54,1.03-4.04,1.04h-5.31Zm3.53-14.27v11.44h1.71c1.38,0,2.44-.45,3.17-1.35,.73-.9,1.1-2.19,1.12-3.87v-.91c0-1.74-.36-3.06-1.08-3.96-.72-.9-1.78-1.35-3.17-1.35h-1.74Z"/><path class="cls-1" d="M71.57,48.54h-8.63l-1.96,4.81h-1.69l7.2-17.13h1.53l7.2,17.13h-1.67l-1.97-4.81Zm-8.14-1.22h7.63l-3.81-9.33-3.81,9.33Z"/><path class="cls-1" d="M79.97,53.36h-1.61v-17.13h1.61v17.13Z"/><path class="cls-1" d="M85.13,53.36v-17.13h5.32c1.56,0,2.96,.32,4.19,.96,1.24,.64,2.2,1.56,2.89,2.75,.69,1.19,1.04,2.55,1.04,4.07v1.58c0,1.53-.34,2.89-1.03,4.07-.69,1.18-1.66,2.1-2.91,2.74-1.25,.64-2.68,.96-4.3,.96h-5.2Zm1.61-15.91v14.69h3.61c2,0,3.61-.6,4.82-1.8,1.21-1.2,1.82-2.82,1.82-4.86v-1.51c0-1.97-.6-3.55-1.79-4.73s-2.76-1.78-4.72-1.79h-3.74Z"/><path class="cls-1" d="M122.88,51.32c-.56,.71-1.43,1.27-2.62,1.67s-2.52,.6-3.99,.6-2.81-.32-3.97-.96c-1.16-.64-2.06-1.55-2.69-2.73-.64-1.18-.96-2.53-.97-4.05v-2.17c0-2.38,.67-4.25,2-5.63,1.33-1.38,3.12-2.07,5.37-2.07,1.96,0,3.54,.45,4.73,1.35,1.19,.9,1.9,2.14,2.13,3.71h-1.61c-.24-1.26-.8-2.21-1.7-2.86-.9-.65-2.08-.97-3.53-.97-1.78,0-3.18,.57-4.22,1.71-1.04,1.14-1.55,2.74-1.55,4.82v2.03c0,1.3,.25,2.46,.74,3.46,.49,1,1.2,1.78,2.12,2.33,.92,.55,1.97,.82,3.17,.82,1.38,0,2.57-.2,3.57-.59,.64-.26,1.12-.56,1.44-.91v-4.42h-5.11v-1.22h6.71v6.1Z"/><path class="cls-1" d="M140.54,36.22v11.7c0,1.15-.29,2.16-.85,3.01-.56,.86-1.34,1.51-2.36,1.97-1.01,.46-2.18,.69-3.49,.69-2,0-3.61-.49-4.81-1.48-1.21-.98-1.83-2.35-1.87-4.09v-11.8h1.59v11.59c0,1.44,.46,2.56,1.37,3.36,.91,.8,2.16,1.19,3.72,1.19s2.81-.4,3.72-1.2c.91-.8,1.37-1.91,1.37-3.34v-11.6h1.62Z"/><path class="cls-1" d="M146.98,53.36h-1.61v-17.13h1.61v17.13Z"/><path class="cls-1" d="M152.14,53.36v-17.13h5.32c1.56,0,2.96,.32,4.19,.96,1.24,.64,2.2,1.56,2.89,2.75,.69,1.19,1.04,2.55,1.04,4.07v1.58c0,1.53-.34,2.89-1.03,4.07-.69,1.18-1.66,2.1-2.91,2.74-1.25,.64-2.68,.96-4.3,.96h-5.2Zm1.61-15.91v14.69h3.61c2,0,3.61-.6,4.82-1.8,1.21-1.2,1.82-2.82,1.82-4.86v-1.51c0-1.97-.6-3.55-1.79-4.73s-2.76-1.78-4.72-1.79h-3.74Z"/><path class="cls-1" d="M180.16,45.14h-8.9v6.99h10.23v1.22h-11.83v-17.13h11.77v1.22h-10.16v6.47h8.9v1.22Z"/></g></svg>