<?xml version="1.0" encoding="UTF-8"?><svg id="Layer_1" xmlns="http://www.w3.org/2000/svg" viewBox="0 0 389.63 65.04"><defs><style>.cls-1{fill:none;stroke:#E4DCCF;stroke-miterlimit:10;stroke-width:1.22px;}.cls-2{fill:#E4DCCF;}</style></defs><rect class="cls-1" x="4.91" y="9.34" width="372.79" height="49.87"/><g><path class="cls-2" d="M53.94,33.55v.95s-.07,.09-.09,.14c-.38,1.07-1.14,1.63-2.28,1.66-.49,.01-.98,0-1.47,0-.53,0-1.06,0-1.62,0,0,.23,0,.4,0,.57,0,5.79,0,11.59,0,17.38,0,1.03-.48,1.52-1.51,1.52-3.5,0-6.99,0-10.49,0-1.05,0-1.53-.49-1.53-1.54,0-3.42,0-6.85,0-10.27,0-.17,0-.33,0-.49h-6.42v.51c0,3.4-.02,6.79,.01,10.19,.01,.96-.49,1.64-1.64,1.63-3.42-.03-6.85-.03-10.27,0-1.11,.01-1.64-.63-1.64-1.63,.03-5.77,.01-11.53,.01-17.3,0-.17,0-.34,0-.53-.14-.01-.24-.02-.34-.02-.92,0-1.85,.02-2.77,0-1.03-.03-1.8-.49-2.19-1.47-.37-.91-.13-1.82,.64-2.56,.14-.13,.27-.26,.41-.38,6.43-5.86,12.86-11.72,19.29-17.57,1.09-1,2.31-.99,3.4,0,6.42,5.85,12.84,11.7,19.26,17.54,.53,.48,1.01,.98,1.23,1.68Z"/><path class="cls-2" d="M49.44,25.35c-3.38-3.07-6.68-6.07-10.03-9.12,.17-.02,.28-.05,.38-.05,2.71,0,5.43,0,8.14,0,1.02,0,1.51,.49,1.51,1.52,0,2.51,0,5.02,0,7.65Z"/></g><g><path class="cls-2" d="M62.01,38.19v7.11h-4.19V25.12h7.94c1.53,0,2.87,.28,4.03,.83,1.16,.55,2.05,1.34,2.68,2.36,.62,1.02,.94,2.18,.94,3.49,0,1.98-.68,3.54-2.05,4.68-1.37,1.14-3.26,1.71-5.67,1.71h-3.68Zm0-3.37h3.75c1.11,0,1.95-.26,2.54-.78,.58-.52,.87-1.26,.87-2.22s-.29-1.79-.88-2.4c-.59-.61-1.4-.92-2.43-.94h-3.84v6.34Z"/><path class="cls-2" d="M93,35.67c0,1.99-.35,3.73-1.06,5.23s-1.72,2.65-3.04,3.47-2.83,1.22-4.54,1.22-3.19-.4-4.52-1.21c-1.32-.8-2.35-1.95-3.08-3.44-.73-1.49-1.1-3.21-1.1-5.15v-1c0-1.99,.36-3.74,1.08-5.25,.72-1.51,1.74-2.67,3.06-3.48s2.83-1.21,4.52-1.21,3.2,.4,4.52,1.21c1.32,.81,2.34,1.97,3.06,3.48,.72,1.51,1.08,3.26,1.08,5.23v.9Zm-4.25-.91c0-2.12-.38-3.72-1.15-4.82-.76-1.1-1.85-1.65-3.27-1.65s-2.49,.54-3.26,1.63c-.76,1.09-1.15,2.68-1.16,4.78v.98c0,2.06,.38,3.66,1.15,4.8,.76,1.14,1.86,1.71,3.3,1.71s2.49-.55,3.24-1.64c.75-1.1,1.14-2.69,1.15-4.79v-.98Z"/><path class="cls-2" d="M103.58,37.91h-3.34v7.39h-4.19V25.12h7.56c2.4,0,4.26,.53,5.56,1.59,1.3,1.06,1.96,2.56,1.96,4.51,0,1.38-.3,2.53-.9,3.45-.6,.92-1.51,1.65-2.73,2.2l4.4,8.25v.19h-4.5l-3.82-7.39Zm-3.34-3.37h3.38c1.05,0,1.87-.27,2.45-.8,.58-.53,.87-1.26,.87-2.2s-.27-1.7-.82-2.25c-.54-.55-1.38-.82-2.51-.82h-3.37v6.06Z"/><path class="cls-2" d="M128.94,28.49h-6.23v16.82h-4.19V28.49h-6.15v-3.37h16.58v3.37Z"/><path class="cls-2" d="M135.52,41.96h8.9v3.34h-13.1V25.12h4.19v16.84Z"/><path class="cls-2" d="M158.59,41.15h-7.35l-1.4,4.16h-4.46l7.58-20.19h3.89l7.62,20.19h-4.46l-1.41-4.16Zm-6.22-3.37h5.09l-2.56-7.56-2.53,7.56Z"/><path class="cls-2" d="M182.91,45.3h-4.19l-8.16-13.28v13.28h-4.19V25.12h4.19l8.18,13.31v-13.31h4.18v20.19Z"/><path class="cls-2" d="M186.58,45.3V25.12h6.26c1.79,0,3.39,.4,4.8,1.2,1.41,.8,2.51,1.94,3.31,3.41,.79,1.47,1.19,3.15,1.19,5.03v.93c0,1.88-.39,3.54-1.17,5-.78,1.46-1.88,2.59-3.29,3.4-1.42,.8-3.01,1.21-4.79,1.22h-6.3Zm4.19-16.82v13.48h2.03c1.64,0,2.89-.53,3.76-1.59,.87-1.06,1.31-2.58,1.33-4.56v-1.07c0-2.05-.43-3.61-1.29-4.66-.86-1.06-2.11-1.59-3.76-1.59h-2.07Z"/><path class="cls-2" d="M215.36,49.05h-2.45V25.12h2.45v23.93Z"/><path class="cls-2" d="M239.91,39.63h-10.26l-2.33,5.67h-2l8.55-20.19h1.82l8.55,20.19h-1.99l-2.34-5.67Zm-9.67-1.44h9.06l-4.53-10.99-4.53,10.99Z"/><path class="cls-2" d="M249.89,45.3h-1.91V25.12h1.91v20.19Z"/><path class="cls-2" d="M256.02,45.3V25.12h6.32c1.85,0,3.51,.38,4.98,1.13,1.47,.75,2.61,1.83,3.44,3.24s1.23,3,1.23,4.8v1.86c0,1.8-.41,3.4-1.23,4.8-.82,1.4-1.97,2.47-3.45,3.23-1.48,.76-3.19,1.14-5.11,1.14h-6.18Zm1.91-18.74v17.3h4.28c2.38,0,4.29-.71,5.73-2.12s2.16-3.32,2.16-5.72v-1.78c0-2.32-.71-4.18-2.13-5.58-1.42-1.4-3.28-2.1-5.6-2.11h-4.44Z"/><path class="cls-2" d="M300.86,42.91c-.66,.84-1.7,1.5-3.11,1.97-1.41,.47-2.99,.71-4.74,.71s-3.34-.38-4.72-1.14c-1.38-.76-2.44-1.83-3.2-3.22s-1.14-2.98-1.15-4.77v-2.55c0-2.8,.79-5.01,2.37-6.63,1.58-1.62,3.71-2.43,6.38-2.43,2.33,0,4.2,.53,5.62,1.59,1.42,1.06,2.26,2.52,2.53,4.37h-1.91c-.28-1.48-.95-2.61-2.02-3.37s-2.47-1.15-4.2-1.15c-2.11,0-3.78,.67-5.01,2.01-1.23,1.34-1.85,3.23-1.85,5.67v2.39c0,1.54,.29,2.89,.88,4.07,.58,1.18,1.42,2.09,2.51,2.74,1.09,.65,2.35,.97,3.76,.97,1.64,0,3.06-.23,4.24-.69,.77-.3,1.33-.66,1.71-1.07v-5.21h-6.07v-1.44h7.98v7.18Z"/><path class="cls-2" d="M321.84,25.12v13.78c-.01,1.36-.35,2.54-1.01,3.55-.66,1.01-1.6,1.78-2.8,2.32-1.2,.54-2.59,.81-4.15,.81-2.38,0-4.29-.58-5.72-1.74-1.43-1.16-2.18-2.77-2.23-4.82v-13.91h1.89v13.66c0,1.7,.54,3.02,1.63,3.96,1.09,.94,2.56,1.41,4.42,1.41s3.33-.47,4.41-1.41c1.08-.94,1.62-2.25,1.62-3.94v-13.67h1.92Z"/><path class="cls-2" d="M329.49,45.3h-1.91V25.12h1.91v20.19Z"/><path class="cls-2" d="M335.62,45.3V25.12h6.32c1.85,0,3.51,.38,4.98,1.13,1.47,.75,2.61,1.83,3.44,3.24s1.23,3,1.23,4.8v1.86c0,1.8-.41,3.4-1.23,4.8-.82,1.4-1.97,2.47-3.45,3.23-1.48,.76-3.19,1.14-5.11,1.14h-6.18Zm1.91-18.74v17.3h4.28c2.38,0,4.29-.71,5.73-2.12s2.16-3.32,2.16-5.72v-1.78c0-2.32-.71-4.18-2.13-5.58-1.42-1.4-3.28-2.1-5.6-2.11h-4.44Z"/><path class="cls-2" d="M368.91,35.63h-10.57v8.24h12.15v1.44h-14.06V25.12h13.98v1.44h-12.07v7.62h10.57v1.44Z"/></g><rect class="cls-2" x="57.06" y="51.29" width="320.64" height="7.94"/></svg>